<?xml version="1.0" encoding="utf-8"?>
<!-- Generator: Adobe Illustrator 16.0.0, SVG Export Plug-In . SVG Version: 6.00 Build 0)  -->
<!DOCTYPE svg PUBLIC "-//W3C//DTD SVG 1.1//EN" "http://www.w3.org/Graphics/SVG/1.1/DTD/svg11.dtd">
<svg version="1.1" id="Layer_1" xmlns="http://www.w3.org/2000/svg" xmlns:xlink="http://www.w3.org/1999/xlink" x="0px" y="0px"
	 width="64px" height="64px" viewBox="0 0 64 64" enable-background="new 0 0 64 64" xml:space="preserve">
<path fill="#FFFFFF" d="M55.637,26.843c-1.535-0.547-2.771-1.719-3.395-3.224v-0.002c-0.626-1.509-0.582-3.211,0.119-4.687
	l4.78-6.104l-5.97-5.967l-6.103,4.777c-1.474,0.702-3.18,0.746-4.688,0.121c-0.001,0-0.002,0-0.002,0
	c-1.506-0.626-2.676-1.859-3.223-3.396L36.22,0.666H27.78l-0.938,7.697c-0.546,1.535-1.718,2.77-3.223,3.396c0,0-0.001,0-0.002,0
	c-1.507,0.625-3.211,0.581-4.688-0.12L12.827,6.86L6.86,12.827l4.778,6.104c0.7,1.475,0.745,3.181,0.12,4.687
	c-0.002,0.002-0.002,0.002-0.002,0.002c-0.624,1.508-1.857,2.677-3.394,3.224L0.666,27.78v8.44l7.697,0.937
	c1.535,0.546,2.77,1.719,3.394,3.223c0,0.001,0,0.002,0.002,0.002c0.625,1.509,0.581,3.213-0.12,4.687L6.86,51.172l5.967,5.968
	l6.103-4.777c1.476-0.701,3.182-0.744,4.688-0.12l0.001,0.001c1.508,0.623,2.677,1.857,3.223,3.394l0.938,7.697h8.44l0.929-7.672
	c0.549-1.548,1.732-2.797,3.251-3.427c0.001,0,0.002,0,0.002-0.001c1.494-0.621,3.182-0.578,4.644,0.115l6.126,4.79l5.97-5.968
	l-4.78-6.105c-0.701-1.472-0.744-3.176-0.12-4.682c0.001-0.001,0.001-0.003,0.001-0.003c0.624-1.506,1.859-2.679,3.398-3.226
	l7.693-0.936v-8.44L55.637,26.843z M32,45.361c-7.379,0-13.361-5.983-13.361-13.361c0-7.379,5.982-13.361,13.361-13.361
	c7.378,0,13.361,5.982,13.361,13.361C45.361,39.378,39.378,45.361,32,45.361z"/>
</svg>
